<svg width="837" height="239" viewBox="0 0 837 239" fill="none" xmlns="http://www.w3.org/2000/svg">
<path d="M104.09 67.54V238.04L59.66 208.49V67.54H0V21.21H103.48L130.42 47.3601L104.09 67.54Z" fill="#0B2A5B"/>
<path d="M150.17 46.23L114.58 74.54V238.04L152.54 209.11L152.33 96.6799L181.85 73.4099L206.54 94.52L228.86 0L120.76 21.21L150.17 46.23Z" fill="#EDA118"/>
<path d="M275.58 55.4802V44.0703H327.59V55.4802H275.58ZM295.03 110.7V53.6501H308.13V110.7H295.03Z" fill="#0B2A5B"/>
<path d="M339.48 110.7V44.0703H352.3V110.7H339.48ZM350.45 55.0203V44.0703H380.24V55.0203H350.45ZM350.45 82.3103V71.3604H378.58V82.3103H350.45ZM350.45 110.7V99.7502H380.97V110.7H350.45Z" fill="#0B2A5B"/>
<path d="M425.611 112.43C419.524 112.43 414.301 111.367 409.941 109.24C405.574 107.114 402.024 104.344 399.291 100.93C396.551 97.5238 394.537 93.8139 393.251 89.8005C391.957 85.7805 391.311 81.9171 391.311 78.2104V76.2004C391.311 72.0604 391.971 67.9838 393.291 63.9705C394.611 59.9505 396.654 56.2972 399.421 53.0105C402.187 49.7238 405.707 47.0939 409.981 45.1206C414.254 43.1406 419.311 42.1504 425.151 42.1504C431.237 42.1504 436.541 43.2306 441.061 45.3906C445.581 47.5506 449.194 50.5938 451.901 54.5205C454.601 58.4472 456.227 63.0272 456.781 68.2605H443.601C443.107 65.2138 442.014 62.6405 440.321 60.5405C438.634 58.4405 436.497 56.8605 433.911 55.8005C431.331 54.7339 428.411 54.2004 425.151 54.2004C421.831 54.2004 418.881 54.764 416.301 55.8906C413.721 57.0173 411.567 58.6138 409.841 60.6804C408.121 62.7471 406.817 65.1805 405.931 67.9805C405.037 70.7805 404.591 73.8839 404.591 77.2905C404.591 80.5772 405.037 83.6204 405.931 86.4204C406.817 89.2204 408.154 91.6705 409.941 93.7705C411.721 95.8705 413.917 97.4971 416.531 98.6504C419.144 99.8104 422.171 100.391 425.611 100.391C430.651 100.384 434.911 99.1504 438.391 96.6904C441.864 94.2238 443.967 90.7706 444.701 86.3306H457.891C457.277 91.0772 455.647 95.4273 453.001 99.3806C450.361 103.341 446.734 106.504 442.121 108.871C437.507 111.251 432.004 112.437 425.611 112.43Z" fill="#0B2A5B"/>
<path d="M470.43 110.7V44.0703H483.53V110.7H470.43ZM481.13 83.0403V71.6304H517V83.0403H481.13ZM514.6 110.7V44.0703H527.7V110.7H514.6Z" fill="#0B2A5B"/>
<path d="M545.78 110.7V44.0703H567.26L595.57 99.9302H598.62L596.77 101.57V44.0703H609.13V110.7H587.55L559.24 54.8403H556.1L557.95 53.1902V110.7H545.78Z" fill="#EDA118"/>
<path fill-rule="evenodd" clip-rule="evenodd" d="M658.83 112.43C652.744 112.43 647.474 111.367 643.02 109.24C638.56 107.114 634.87 104.331 631.95 100.891C629.03 97.4506 626.847 93.7372 625.4 89.7505C623.96 85.7638 623.24 81.9171 623.24 78.2104V76.2004C623.24 72.1204 623.977 68.0572 625.45 64.0105C626.924 59.9638 629.154 56.2972 632.14 53.0105C635.12 49.7238 638.824 47.0939 643.25 45.1206C647.677 43.1406 652.87 42.1504 658.83 42.1504C664.737 42.1504 669.904 43.1406 674.33 45.1206C678.75 47.0939 682.454 49.7238 685.44 53.0105C688.42 56.2972 690.647 59.9638 692.12 64.0105C693.6 68.0572 694.34 72.1204 694.34 76.2004V78.2104C694.34 81.9171 693.617 85.7638 692.17 89.7505C690.724 93.7372 688.54 97.4506 685.62 100.891C682.7 104.331 679.014 107.114 674.56 109.24C670.1 111.367 664.857 112.43 658.83 112.43ZM658.83 100.391C662.277 100.391 665.367 99.7805 668.1 98.5605C670.834 97.3405 673.17 95.6505 675.11 93.4905C677.05 91.3305 678.527 88.8673 679.54 86.1006C680.554 83.3339 681.06 80.3972 681.06 77.2905C681.06 73.9439 680.554 70.8706 679.54 68.0706C678.527 65.2706 677.05 62.8372 675.11 60.7705C673.177 58.7038 670.824 57.0904 668.05 55.9304C665.284 54.7771 662.21 54.2004 658.83 54.2004C655.39 54.2004 652.287 54.7771 649.52 55.9304C646.754 57.0904 644.4 58.7038 642.46 60.7705C640.527 62.8372 639.054 65.2706 638.04 68.0706C637.027 70.8706 636.52 73.9439 636.52 77.2905C636.52 80.3972 637.027 83.3339 638.04 86.1006C639.054 88.8673 640.527 91.3305 642.46 93.4905C644.4 95.6505 646.754 97.3405 649.52 98.5605C652.287 99.7805 655.39 100.391 658.83 100.391Z" fill="#EDA118"/>
<path d="M722.56 110.7L701.07 44.0703H714.62L732.42 101.75L728.55 99.9302H738.51L734.54 101.75L750.96 44.0703H764.05L744.13 110.7H722.56Z" fill="#EDA118"/>
<path d="M765.16 110.7L788.12 44.0703H809.51L833.12 110.7H819.66L799.65 52.9202L804.35 54.9302H792.82L797.62 52.9202L778.25 110.7H765.16Z" fill="#EDA118"/>
<path d="M273.49 160.19H350.91V154.42H273.49V160.19Z" fill="#EDA118"/>
<path d="M758.87 160.19H836.29V154.42H758.87V160.19Z" fill="#EDA118"/>
<path d="M385.749 171.794C383.14 171.794 380.919 171.364 379.084 170.504C377.249 169.644 375.845 168.454 374.87 166.935C373.895 165.415 373.408 163.695 373.408 161.775H377.622C377.622 162.721 377.866 163.667 378.353 164.613C378.869 165.559 379.715 166.347 380.89 166.978C382.094 167.608 383.714 167.924 385.749 167.924C387.641 167.924 389.189 167.651 390.393 167.107C391.597 166.533 392.486 165.802 393.059 164.914C393.632 163.996 393.919 163.007 393.919 161.947C393.919 160.657 393.36 159.596 392.242 158.765C391.124 157.905 389.49 157.374 387.34 157.174L383.857 156.873C381.076 156.643 378.855 155.783 377.192 154.293C375.529 152.802 374.698 150.838 374.698 148.402C374.698 146.481 375.157 144.804 376.074 143.371C377.02 141.937 378.324 140.819 379.987 140.017C381.65 139.185 383.585 138.77 385.792 138.77C387.971 138.77 389.891 139.171 391.554 139.974C393.217 140.776 394.507 141.909 395.424 143.371C396.37 144.804 396.843 146.524 396.843 148.531H392.629C392.629 147.527 392.385 146.581 391.898 145.693C391.439 144.804 390.708 144.073 389.705 143.5C388.702 142.926 387.397 142.64 385.792 142.64C384.244 142.64 382.954 142.912 381.922 143.457C380.919 144.001 380.159 144.718 379.643 145.607C379.156 146.467 378.912 147.398 378.912 148.402C378.912 149.548 379.356 150.566 380.245 151.455C381.134 152.343 382.452 152.859 384.201 153.003L387.684 153.304C389.834 153.476 391.683 153.934 393.231 154.68C394.808 155.396 396.012 156.371 396.843 157.604C397.703 158.808 398.133 160.255 398.133 161.947C398.133 163.867 397.617 165.573 396.585 167.064C395.553 168.554 394.105 169.715 392.242 170.547C390.379 171.378 388.214 171.794 385.749 171.794ZM436.837 158.808L426.861 139.63H431.247L439.675 156.056L438.041 155.583H443.115L441.395 156.056L449.307 139.63H453.435L444.061 158.808H436.837ZM438.385 171.02V157.948H442.513V171.02H438.385ZM494.415 171.794C491.806 171.794 489.584 171.364 487.75 170.504C485.915 169.644 484.51 168.454 483.536 166.935C482.561 165.415 482.074 163.695 482.074 161.775H486.288C486.288 162.721 486.531 163.667 487.019 164.613C487.535 165.559 488.38 166.347 489.556 166.978C490.76 167.608 492.379 167.924 494.415 167.924C496.307 167.924 497.855 167.651 499.059 167.107C500.263 166.533 501.151 165.802 501.725 164.914C502.298 163.996 502.585 163.007 502.585 161.947C502.585 160.657 502.026 159.596 500.908 158.765C499.79 157.905 498.156 157.374 496.006 157.174L492.523 156.873C489.742 156.643 487.52 155.783 485.858 154.293C484.195 152.802 483.364 150.838 483.364 148.402C483.364 146.481 483.822 144.804 484.74 143.371C485.686 141.937 486.99 140.819 488.653 140.017C490.315 139.185 492.25 138.77 494.458 138.77C496.636 138.77 498.557 139.171 500.22 139.974C501.882 140.776 503.172 141.909 504.09 143.371C505.036 144.804 505.509 146.524 505.509 148.531H501.295C501.295 147.527 501.051 146.581 500.564 145.693C500.105 144.804 499.374 144.073 498.371 143.5C497.367 142.926 496.063 142.64 494.458 142.64C492.91 142.64 491.62 142.912 490.588 143.457C489.584 144.001 488.825 144.718 488.309 145.607C487.821 146.467 487.578 147.398 487.578 148.402C487.578 149.548 488.022 150.566 488.911 151.455C489.799 152.343 491.118 152.859 492.867 153.003L496.35 153.304C498.5 153.476 500.349 153.934 501.897 154.68C503.473 155.396 504.677 156.371 505.509 157.604C506.369 158.808 506.799 160.255 506.799 161.947C506.799 163.867 506.283 165.573 505.251 167.064C504.219 168.554 502.771 169.715 500.908 170.547C499.044 171.378 496.88 171.794 494.415 171.794ZM545.88 171.02V142.554H550.094V171.02H545.88ZM536.334 143.414V139.63H559.64V143.414H536.334ZM591.966 171.02V139.63H596.18V171.02H591.966ZM595.32 171.02V167.236H610.542V171.02H595.32ZM595.32 156.959V153.175H609.209V156.959H595.32ZM595.32 143.414V139.63H610.112V143.414H595.32ZM644.409 171.02V139.63H649.999L659.287 160.571H659.975L669.22 139.63H674.853V171.02H670.639V144.231L670.94 144.317L662.039 164.527H656.879L647.935 144.317L648.279 144.231V171.02H644.409ZM720.816 171.794C718.208 171.794 715.986 171.364 714.151 170.504C712.317 169.644 710.912 168.454 709.937 166.935C708.963 165.415 708.475 163.695 708.475 161.775H712.689C712.689 162.721 712.933 163.667 713.42 164.613C713.936 165.559 714.782 166.347 715.957 166.978C717.161 167.608 718.781 167.924 720.816 167.924C722.708 167.924 724.256 167.651 725.46 167.107C726.664 166.533 727.553 165.802 728.126 164.914C728.7 163.996 728.986 163.007 728.986 161.947C728.986 160.657 728.427 159.596 727.309 158.765C726.191 157.905 724.557 157.374 722.407 157.174L718.924 156.873C716.144 156.643 713.922 155.783 712.259 154.293C710.597 152.802 709.765 150.838 709.765 148.402C709.765 146.481 710.224 144.804 711.141 143.371C712.087 141.937 713.392 140.819 715.054 140.017C716.717 139.185 718.652 138.77 720.859 138.77C723.038 138.77 724.959 139.171 726.621 139.974C728.284 140.776 729.574 141.909 730.491 143.371C731.437 144.804 731.91 146.524 731.91 148.531H727.696C727.696 147.527 727.453 146.581 726.965 145.693C726.507 144.804 725.776 144.073 724.772 143.5C723.769 142.926 722.465 142.64 720.859 142.64C719.311 142.64 718.021 142.912 716.989 143.457C715.986 144.001 715.226 144.718 714.71 145.607C714.223 146.467 713.979 147.398 713.979 148.402C713.979 149.548 714.424 150.566 715.312 151.455C716.201 152.343 717.52 152.859 719.268 153.003L722.751 153.304C724.901 153.476 726.75 153.934 728.298 154.68C729.875 155.396 731.079 156.371 731.91 157.604C732.77 158.808 733.2 160.255 733.2 161.947C733.2 163.867 732.684 165.573 731.652 167.064C730.62 168.554 729.173 169.715 727.309 170.547C725.446 171.378 723.282 171.794 720.816 171.794Z" fill="#0B2A5B"/>
<path d="M277.456 210.02V195.456H279.612V210.02H277.456ZM272.572 195.896V193.96H284.496V195.896H272.572ZM291.486 210.02V193.96H293.598V203.552H293.07C293.07 202.393 293.217 201.396 293.51 200.56C293.818 199.709 294.288 199.056 294.918 198.602C295.549 198.147 296.356 197.92 297.338 197.92H297.427C298.835 197.92 299.898 198.389 300.617 199.328C301.335 200.252 301.695 201.579 301.695 203.31V210.02H299.582V202.87C299.582 201.916 299.311 201.176 298.768 200.648C298.241 200.12 297.551 199.856 296.701 199.856C295.762 199.856 295.006 200.171 294.434 200.802C293.877 201.418 293.598 202.232 293.598 203.244V210.02H291.486ZM314.953 210.416C313.926 210.416 313.039 210.24 312.291 209.888C311.543 209.536 310.934 209.074 310.465 208.502C309.995 207.915 309.643 207.262 309.409 206.544C309.189 205.825 309.079 205.092 309.079 204.344V203.948C309.079 203.185 309.189 202.444 309.409 201.726C309.643 201.007 309.995 200.362 310.465 199.79C310.934 199.203 311.528 198.741 312.247 198.404C312.98 198.052 313.838 197.876 314.821 197.876C316.097 197.876 317.145 198.154 317.967 198.712C318.803 199.254 319.419 199.958 319.815 200.824C320.225 201.689 320.431 202.613 320.431 203.596V204.542H310.003V202.958H318.891L318.407 203.816C318.407 202.98 318.275 202.261 318.011 201.66C317.747 201.044 317.351 200.567 316.823 200.23C316.295 199.892 315.627 199.724 314.821 199.724C313.985 199.724 313.288 199.914 312.731 200.296C312.188 200.677 311.777 201.198 311.499 201.858C311.235 202.518 311.103 203.28 311.103 204.146C311.103 204.982 311.235 205.737 311.499 206.412C311.777 207.072 312.203 207.6 312.775 207.996C313.347 208.377 314.073 208.568 314.953 208.568C315.877 208.568 316.625 208.362 317.197 207.952C317.783 207.541 318.135 207.064 318.253 206.522H320.233C320.071 207.328 319.749 208.025 319.265 208.612C318.781 209.198 318.172 209.646 317.439 209.954C316.705 210.262 315.877 210.416 314.953 210.416ZM337.543 210.02V193.96H339.699V210.02H337.543ZM339.259 202.87V200.934L346.145 200.912V202.848L339.259 202.87ZM339.259 195.896V193.96H346.519V195.896H339.259ZM357.844 210.372C356.451 210.372 355.38 209.917 354.632 209.008C353.884 208.098 353.51 206.786 353.51 205.07V198.25H355.622V205.488C355.622 206.412 355.871 207.138 356.37 207.666C356.869 208.179 357.543 208.436 358.394 208.436C359.274 208.436 359.993 208.157 360.55 207.6C361.107 207.028 361.386 206.25 361.386 205.268V198.25H363.498V210.02H361.826V204.982H362.09C362.09 206.14 361.936 207.123 361.628 207.93C361.32 208.722 360.858 209.33 360.242 209.756C359.641 210.166 358.871 210.372 357.932 210.372H357.844ZM376.564 210.152C375.684 210.152 374.922 210.027 374.276 209.778C373.646 209.528 373.154 209.103 372.802 208.502C372.465 207.886 372.296 207.057 372.296 206.016V194.708H374.32V206.28C374.32 206.91 374.489 207.402 374.826 207.754C375.178 208.091 375.67 208.26 376.3 208.26H378.368V210.152H376.564ZM370.272 199.856V198.272H378.368V199.856H370.272ZM389.826 210.372C388.432 210.372 387.362 209.917 386.614 209.008C385.866 208.098 385.492 206.786 385.492 205.07V198.25H387.604V205.488C387.604 206.412 387.853 207.138 388.352 207.666C388.85 208.179 389.525 208.436 390.376 208.436C391.256 208.436 391.974 208.157 392.532 207.6C393.089 207.028 393.368 206.25 393.368 205.268V198.25H395.48V210.02H393.808V204.982H394.072C394.072 206.14 393.918 207.123 393.61 207.93C393.302 208.722 392.84 209.33 392.224 209.756C391.622 210.166 390.852 210.372 389.914 210.372H389.826ZM403.97 210.02V198.272H405.642V203.112H405.554C405.554 201.396 405.928 200.142 406.676 199.35C407.439 198.543 408.575 198.14 410.086 198.14H410.482V200.032H409.734C408.561 200.032 407.659 200.347 407.028 200.978C406.397 201.594 406.082 202.488 406.082 203.662V210.02H403.97ZM422.259 210.416C421.232 210.416 420.345 210.24 419.597 209.888C418.849 209.536 418.24 209.074 417.771 208.502C417.301 207.915 416.949 207.262 416.715 206.544C416.495 205.825 416.385 205.092 416.385 204.344V203.948C416.385 203.185 416.495 202.444 416.715 201.726C416.949 201.007 417.301 200.362 417.771 199.79C418.24 199.203 418.834 198.741 419.553 198.404C420.286 198.052 421.144 197.876 422.127 197.876C423.403 197.876 424.451 198.154 425.273 198.712C426.109 199.254 426.725 199.958 427.121 200.824C427.531 201.689 427.737 202.613 427.737 203.596V204.542H417.309V202.958H426.197L425.713 203.816C425.713 202.98 425.581 202.261 425.317 201.66C425.053 201.044 424.657 200.567 424.129 200.23C423.601 199.892 422.933 199.724 422.127 199.724C421.291 199.724 420.594 199.914 420.037 200.296C419.494 200.677 419.083 201.198 418.805 201.858C418.541 202.518 418.409 203.28 418.409 204.146C418.409 204.982 418.541 205.737 418.805 206.412C419.083 207.072 419.509 207.6 420.081 207.996C420.653 208.377 421.379 208.568 422.259 208.568C423.183 208.568 423.931 208.362 424.503 207.952C425.089 207.541 425.441 207.064 425.559 206.522H427.539C427.377 207.328 427.055 208.025 426.571 208.612C426.087 209.198 425.478 209.646 424.745 209.954C424.011 210.262 423.183 210.416 422.259 210.416ZM444.893 210.02V193.96H447.049V210.02H444.893ZM459.709 210.372C458.169 210.372 456.974 210.042 456.123 209.382C455.287 208.722 454.854 207.82 454.825 206.676H456.805C456.834 207.13 457.062 207.563 457.487 207.974C457.927 208.37 458.668 208.568 459.709 208.568C460.648 208.568 461.366 208.384 461.865 208.018C462.364 207.636 462.613 207.174 462.613 206.632C462.613 206.148 462.43 205.774 462.063 205.51C461.696 205.231 461.102 205.048 460.281 204.96L459.005 204.828C457.89 204.71 456.981 204.38 456.277 203.838C455.573 203.28 455.221 202.503 455.221 201.506C455.221 200.758 455.412 200.12 455.793 199.592C456.174 199.049 456.702 198.638 457.377 198.36C458.052 198.066 458.829 197.92 459.709 197.92C461.029 197.92 462.1 198.213 462.921 198.8C463.742 199.386 464.168 200.259 464.197 201.418H462.217C462.202 200.948 461.982 200.552 461.557 200.23C461.146 199.892 460.53 199.724 459.709 199.724C458.888 199.724 458.264 199.892 457.839 200.23C457.414 200.567 457.201 200.992 457.201 201.506C457.201 201.946 457.348 202.298 457.641 202.562C457.949 202.826 458.448 202.994 459.137 203.068L460.413 203.2C461.674 203.332 462.686 203.684 463.449 204.256C464.212 204.813 464.593 205.605 464.593 206.632C464.593 207.365 464.38 208.018 463.955 208.59C463.544 209.147 462.972 209.587 462.239 209.91C461.506 210.218 460.662 210.372 459.709 210.372ZM472.054 210.02V198.272H473.726V203.31H473.462C473.462 202.151 473.616 201.176 473.924 200.384C474.247 199.577 474.731 198.968 475.376 198.558C476.021 198.132 476.835 197.92 477.818 197.92H477.906C479.387 197.92 480.48 198.382 481.184 199.306C481.903 200.23 482.262 201.564 482.262 203.31V210.02H480.15V202.87C480.15 201.96 479.893 201.234 479.38 200.692C478.867 200.134 478.163 199.856 477.268 199.856C476.344 199.856 475.596 200.142 475.024 200.714C474.452 201.286 474.166 202.048 474.166 203.002V210.02H472.054ZM489.215 200.648V199.504H489.413C489.882 199.504 490.256 199.423 490.535 199.262C490.813 199.1 491.011 198.851 491.129 198.514C491.261 198.162 491.327 197.722 491.327 197.194V195.544L491.855 196.534C491.752 196.592 491.613 196.636 491.437 196.666C491.275 196.695 491.114 196.71 490.953 196.71C490.542 196.71 490.197 196.585 489.919 196.336C489.655 196.072 489.523 195.712 489.523 195.258C489.523 194.832 489.647 194.48 489.897 194.202C490.161 193.923 490.513 193.784 490.953 193.784C491.231 193.784 491.495 193.85 491.745 193.982C491.994 194.114 492.199 194.348 492.361 194.686C492.522 195.023 492.603 195.507 492.603 196.138V196.6C492.603 197.67 492.471 198.499 492.207 199.086C491.943 199.672 491.569 200.083 491.085 200.318C490.601 200.538 490.029 200.648 489.369 200.648H489.215ZM504.659 210.152C503.779 210.152 503.016 210.027 502.371 209.778C501.74 209.528 501.249 209.103 500.897 208.502C500.559 207.886 500.391 207.057 500.391 206.016V194.708H502.415V206.28C502.415 206.91 502.583 207.402 502.921 207.754C503.273 208.091 503.764 208.26 504.395 208.26H506.463V210.152H504.659ZM498.367 199.856V198.272H506.463V199.856H498.367ZM526.226 210.02L521.892 193.96H524.114L527.876 208.612L526.842 208.084H529.46L528.316 208.612L531.374 194.62H533.398L529.9 210.02H526.226ZM535.884 210.02L532.034 194.62H534.124L537.578 208.612L536.478 208.084H539.118L537.996 208.612L541.362 193.96H543.518L539.58 210.02H535.884ZM550.343 210.02V198.272H552.015V203.112H551.927C551.927 201.396 552.301 200.142 553.049 199.35C553.812 198.543 554.948 198.14 556.459 198.14H556.855V200.032H556.107C554.934 200.032 554.032 200.347 553.401 200.978C552.77 201.594 552.455 202.488 552.455 203.662V210.02H550.343ZM564.339 210.02V198.272H566.451V210.02H564.339ZM562.535 199.944V198.272H566.451V199.944H562.535ZM564.933 196.38C564.463 196.38 564.111 196.255 563.877 196.006C563.657 195.756 563.547 195.441 563.547 195.06C563.547 194.678 563.657 194.363 563.877 194.114C564.111 193.864 564.463 193.74 564.933 193.74C565.402 193.74 565.747 193.864 565.967 194.114C566.201 194.363 566.319 194.678 566.319 195.06C566.319 195.441 566.201 195.756 565.967 196.006C565.747 196.255 565.402 196.38 564.933 196.38ZM579.51 210.152C578.63 210.152 577.867 210.027 577.222 209.778C576.591 209.528 576.1 209.103 575.748 208.502C575.411 207.886 575.242 207.057 575.242 206.016V194.708H577.266V206.28C577.266 206.91 577.435 207.402 577.772 207.754C578.124 208.091 578.615 208.26 579.246 208.26H581.314V210.152H579.51ZM573.218 199.856V198.272H581.314V199.856H573.218ZM593.277 210.152C592.397 210.152 591.635 210.027 590.989 209.778C590.359 209.528 589.867 209.103 589.515 208.502C589.178 207.886 589.009 207.057 589.009 206.016V194.708H591.033V206.28C591.033 206.91 591.202 207.402 591.539 207.754C591.891 208.091 592.383 208.26 593.013 208.26H595.081V210.152H593.277ZM586.985 199.856V198.272H595.081V199.856H586.985ZM607.377 210.416C606.35 210.416 605.463 210.24 604.715 209.888C603.967 209.536 603.358 209.074 602.889 208.502C602.419 207.915 602.067 207.262 601.833 206.544C601.613 205.825 601.503 205.092 601.503 204.344V203.948C601.503 203.185 601.613 202.444 601.833 201.726C602.067 201.007 602.419 200.362 602.889 199.79C603.358 199.203 603.952 198.741 604.671 198.404C605.404 198.052 606.262 197.876 607.245 197.876C608.521 197.876 609.569 198.154 610.391 198.712C611.227 199.254 611.843 199.958 612.239 200.824C612.649 201.689 612.855 202.613 612.855 203.596V204.542H602.427V202.958H611.315L610.831 203.816C610.831 202.98 610.699 202.261 610.435 201.66C610.171 201.044 609.775 200.567 609.247 200.23C608.719 199.892 608.051 199.724 607.245 199.724C606.409 199.724 605.712 199.914 605.155 200.296C604.612 200.677 604.201 201.198 603.923 201.858C603.659 202.518 603.527 203.28 603.527 204.146C603.527 204.982 603.659 205.737 603.923 206.412C604.201 207.072 604.627 207.6 605.199 207.996C605.771 208.377 606.497 208.568 607.377 208.568C608.301 208.568 609.049 208.362 609.621 207.952C610.207 207.541 610.559 207.064 610.677 206.522H612.657C612.495 207.328 612.173 208.025 611.689 208.612C611.205 209.198 610.596 209.646 609.863 209.954C609.129 210.262 608.301 210.416 607.377 210.416ZM620.253 210.02V198.272H621.925V203.31H621.661C621.661 202.151 621.815 201.176 622.123 200.384C622.446 199.577 622.93 198.968 623.575 198.558C624.221 198.132 625.035 197.92 626.017 197.92H626.105C627.587 197.92 628.679 198.382 629.383 199.306C630.102 200.23 630.461 201.564 630.461 203.31V210.02H628.349V202.87C628.349 201.96 628.093 201.234 627.579 200.692C627.066 200.134 626.362 199.856 625.467 199.856C624.543 199.856 623.795 200.142 623.223 200.714C622.651 201.286 622.365 202.048 622.365 203.002V210.02H620.253ZM638.308 210.02V207.336H640.86V210.02H638.308ZM661.259 210.02L656.925 193.96H659.147L662.909 208.612L661.875 208.084H664.493L663.349 208.612L666.407 194.62H668.431L664.933 210.02H661.259ZM670.917 210.02L667.067 194.62H669.157L672.611 208.612L671.511 208.084H674.151L673.029 208.612L676.395 193.96H678.551L674.613 210.02H670.917ZM690.091 210.416C689.065 210.416 688.177 210.24 687.429 209.888C686.681 209.536 686.073 209.074 685.603 208.502C685.134 207.915 684.782 207.262 684.547 206.544C684.327 205.825 684.217 205.092 684.217 204.344V203.948C684.217 203.185 684.327 202.444 684.547 201.726C684.782 201.007 685.134 200.362 685.603 199.79C686.073 199.203 686.667 198.741 687.385 198.404C688.119 198.052 688.977 197.876 689.959 197.876C691.235 197.876 692.284 198.154 693.105 198.712C693.941 199.254 694.557 199.958 694.953 200.824C695.364 201.689 695.569 202.613 695.569 203.596V204.542H685.141V202.958H694.029L693.545 203.816C693.545 202.98 693.413 202.261 693.149 201.66C692.885 201.044 692.489 200.567 691.961 200.23C691.433 199.892 690.766 199.724 689.959 199.724C689.123 199.724 688.427 199.914 687.869 200.296C687.327 200.677 686.916 201.198 686.637 201.858C686.373 202.518 686.241 203.28 686.241 204.146C686.241 204.982 686.373 205.737 686.637 206.412C686.916 207.072 687.341 207.6 687.913 207.996C688.485 208.377 689.211 208.568 690.091 208.568C691.015 208.568 691.763 208.362 692.335 207.952C692.922 207.541 693.274 207.064 693.391 206.522H695.371C695.21 207.328 694.887 208.025 694.403 208.612C693.919 209.198 693.311 209.646 692.577 209.954C691.844 210.262 691.015 210.416 690.091 210.416ZM714.398 210.108V208.216H718.886C719.751 208.216 720.419 207.974 720.888 207.49C721.372 206.991 721.614 206.331 721.614 205.51C721.614 204.674 721.379 204.021 720.91 203.552C720.441 203.068 719.766 202.826 718.886 202.826H714.398V201.418H718.578C719.605 201.418 720.507 201.542 721.284 201.792C722.076 202.041 722.692 202.459 723.132 203.046C723.587 203.618 723.814 204.402 723.814 205.4V205.708C723.814 206.646 723.623 207.446 723.242 208.106C722.861 208.751 722.281 209.25 721.504 209.602C720.727 209.939 719.751 210.108 718.578 210.108H714.398ZM712.682 210.108V193.872H714.838V210.108H712.682ZM714.398 202.43V201.022H718.292C719.201 201.022 719.869 200.78 720.294 200.296C720.734 199.797 720.954 199.166 720.954 198.404C720.954 197.626 720.734 196.996 720.294 196.512C719.869 196.013 719.201 195.764 718.292 195.764H714.398V193.872H717.918C719.678 193.872 720.991 194.246 721.856 194.994C722.721 195.727 723.154 196.79 723.154 198.184V198.492C723.154 199.474 722.934 200.259 722.494 200.846C722.054 201.418 721.438 201.828 720.646 202.078C719.869 202.312 718.959 202.43 717.918 202.43H714.398ZM735.797 210.372C734.404 210.372 733.333 209.917 732.585 209.008C731.837 208.098 731.463 206.786 731.463 205.07V198.25H733.575V205.488C733.575 206.412 733.824 207.138 734.323 207.666C734.822 208.179 735.496 208.436 736.347 208.436C737.227 208.436 737.946 208.157 738.503 207.6C739.06 207.028 739.339 206.25 739.339 205.268V198.25H741.451V210.02H739.779V204.982H740.043C740.043 206.14 739.889 207.123 739.581 207.93C739.273 208.722 738.811 209.33 738.195 209.756C737.594 210.166 736.824 210.372 735.885 210.372H735.797ZM750.514 210.02V198.272H752.626V210.02H750.514ZM748.71 199.944V198.272H752.626V199.944H748.71ZM751.108 196.38C750.638 196.38 750.286 196.255 750.052 196.006C749.832 195.756 749.722 195.441 749.722 195.06C749.722 194.678 749.832 194.363 750.052 194.114C750.286 193.864 750.638 193.74 751.108 193.74C751.577 193.74 751.922 193.864 752.142 194.114C752.376 194.363 752.494 194.678 752.494 195.06C752.494 195.441 752.376 195.756 752.142 196.006C751.922 196.255 751.577 196.38 751.108 196.38ZM761.241 210.02V193.96H763.353V210.02H761.241ZM759.613 195.632V193.96H763.353V195.632H759.613ZM776.71 210.416C775.874 210.416 775.104 210.262 774.4 209.954C773.696 209.646 773.08 209.213 772.552 208.656C772.039 208.098 771.635 207.453 771.342 206.72C771.063 205.986 770.924 205.194 770.924 204.344V203.948C770.924 203.112 771.063 202.327 771.342 201.594C771.621 200.86 772.009 200.215 772.508 199.658C773.021 199.1 773.623 198.668 774.312 198.36C775.016 198.037 775.793 197.876 776.644 197.876C777.539 197.876 778.353 198.066 779.086 198.448C779.819 198.814 780.421 199.394 780.89 200.186C781.359 200.978 781.623 202.004 781.682 203.266L780.802 201.858V193.96H782.914V210.02H781.242V204.806H781.858C781.799 206.14 781.521 207.226 781.022 208.062C780.523 208.883 779.893 209.484 779.13 209.866C778.382 210.232 777.575 210.416 776.71 210.416ZM776.996 208.568C777.715 208.568 778.367 208.406 778.954 208.084C779.541 207.761 780.01 207.299 780.362 206.698C780.714 206.082 780.89 205.363 780.89 204.542V203.53C780.89 202.723 780.707 202.041 780.34 201.484C779.988 200.912 779.511 200.479 778.91 200.186C778.323 199.878 777.678 199.724 776.974 199.724C776.197 199.724 775.507 199.907 774.906 200.274C774.319 200.64 773.857 201.154 773.52 201.814C773.197 202.474 773.036 203.251 773.036 204.146C773.036 205.04 773.205 205.825 773.542 206.5C773.879 207.16 774.349 207.673 774.95 208.04C775.551 208.392 776.233 208.568 776.996 208.568ZM801.13 210.02V193.96H803.286V210.02H801.13ZM816.672 210.152C815.792 210.152 815.029 210.027 814.384 209.778C813.753 209.528 813.262 209.103 812.91 208.502C812.573 207.886 812.404 207.057 812.404 206.016V194.708H814.428V206.28C814.428 206.91 814.597 207.402 814.934 207.754C815.286 208.091 815.777 208.26 816.408 208.26H818.476V210.152H816.672ZM810.38 199.856V198.272H818.476V199.856H810.38Z" fill="#0B2A5B"/>
</svg>
